<mxfile host="app.diagrams.net" agent="Mozilla/5.0 (X11; Ubuntu; Linux x86_64; rv:129.0) Gecko/20100101 Firefox/129.0" version="24.7.10">
  <diagram name="Page-1" id="1MtTtt-3oxwZA_JdPo1i">
    <mxGraphModel dx="1235" dy="965" grid="1" gridSize="10" guides="1" tooltips="1" connect="1" arrows="1" fold="1" page="1" pageScale="1" pageWidth="850" pageHeight="1100" math="0" shadow="0">
      <root>
        <mxCell id="0" />
        <mxCell id="1" parent="0" />
        <mxCell id="BvLDTORuHnHlOKWKwA92-1" value="" style="rounded=0;whiteSpace=wrap;html=1;" vertex="1" parent="1">
          <mxGeometry x="120" y="40" width="600" height="940" as="geometry" />
        </mxCell>
        <mxCell id="BvLDTORuHnHlOKWKwA92-2" value="" style="rounded=1;whiteSpace=wrap;html=1;" vertex="1" parent="1">
          <mxGeometry x="130" y="50" width="580" height="60" as="geometry" />
        </mxCell>
        <mxCell id="BvLDTORuHnHlOKWKwA92-3" value="Home" style="text;html=1;align=center;verticalAlign=middle;whiteSpace=wrap;rounded=0;" vertex="1" parent="1">
          <mxGeometry x="140" y="65" width="60" height="30" as="geometry" />
        </mxCell>
        <mxCell id="BvLDTORuHnHlOKWKwA92-4" value="Om mig" style="text;html=1;align=center;verticalAlign=middle;whiteSpace=wrap;rounded=0;" vertex="1" parent="1">
          <mxGeometry x="240" y="65" width="60" height="30" as="geometry" />
        </mxCell>
        <mxCell id="BvLDTORuHnHlOKWKwA92-5" value="Projekt" style="text;html=1;align=center;verticalAlign=middle;whiteSpace=wrap;rounded=0;" vertex="1" parent="1">
          <mxGeometry x="350" y="65" width="60" height="30" as="geometry" />
        </mxCell>
        <mxCell id="BvLDTORuHnHlOKWKwA92-6" value="" style="rounded=1;whiteSpace=wrap;html=1;" vertex="1" parent="1">
          <mxGeometry x="130" y="120" width="580" height="60" as="geometry" />
        </mxCell>
        <mxCell id="BvLDTORuHnHlOKWKwA92-7" value="CV" style="text;html=1;align=center;verticalAlign=middle;whiteSpace=wrap;rounded=0;" vertex="1" parent="1">
          <mxGeometry x="140" y="135" width="60" height="30" as="geometry" />
        </mxCell>
        <mxCell id="BvLDTORuHnHlOKWKwA92-8" value="" style="rounded=0;whiteSpace=wrap;html=1;" vertex="1" parent="1">
          <mxGeometry x="130" y="190" width="580" height="70" as="geometry" />
        </mxCell>
        <mxCell id="BvLDTORuHnHlOKWKwA92-9" value="Om mig" style="text;html=1;align=center;verticalAlign=middle;whiteSpace=wrap;rounded=0;" vertex="1" parent="1">
          <mxGeometry x="150" y="210" width="60" height="30" as="geometry" />
        </mxCell>
        <mxCell id="BvLDTORuHnHlOKWKwA92-12" value="Text" style="text;html=1;align=center;verticalAlign=middle;whiteSpace=wrap;rounded=0;" vertex="1" parent="1">
          <mxGeometry x="365" y="210" width="60" height="30" as="geometry" />
        </mxCell>
        <mxCell id="BvLDTORuHnHlOKWKwA92-13" value="" style="rounded=0;whiteSpace=wrap;html=1;" vertex="1" parent="1">
          <mxGeometry x="130" y="270" width="580" height="80" as="geometry" />
        </mxCell>
        <mxCell id="BvLDTORuHnHlOKWKwA92-14" value="Färdigheter" style="text;html=1;align=center;verticalAlign=middle;whiteSpace=wrap;rounded=0;" vertex="1" parent="1">
          <mxGeometry x="150" y="290" width="60" height="30" as="geometry" />
        </mxCell>
        <mxCell id="BvLDTORuHnHlOKWKwA92-15" value="Text" style="text;html=1;align=center;verticalAlign=middle;whiteSpace=wrap;rounded=0;" vertex="1" parent="1">
          <mxGeometry x="365" y="290" width="60" height="30" as="geometry" />
        </mxCell>
        <mxCell id="BvLDTORuHnHlOKWKwA92-16" value="" style="rounded=0;whiteSpace=wrap;html=1;" vertex="1" parent="1">
          <mxGeometry x="130" y="360" width="580" height="220" as="geometry" />
        </mxCell>
        <mxCell id="BvLDTORuHnHlOKWKwA92-17" value="Arbetserfarenhet" style="text;html=1;align=center;verticalAlign=middle;whiteSpace=wrap;rounded=0;" vertex="1" parent="1">
          <mxGeometry x="140" y="380" width="87" height="30" as="geometry" />
        </mxCell>
        <mxCell id="BvLDTORuHnHlOKWKwA92-18" value="" style="endArrow=none;html=1;rounded=0;entryX=0.862;entryY=0.318;entryDx=0;entryDy=0;entryPerimeter=0;exitX=0.5;exitY=0.318;exitDx=0;exitDy=0;exitPerimeter=0;" edge="1" parent="1" source="BvLDTORuHnHlOKWKwA92-16" target="BvLDTORuHnHlOKWKwA92-16">
          <mxGeometry width="50" height="50" relative="1" as="geometry">
            <mxPoint x="400" y="360" as="sourcePoint" />
            <mxPoint x="450" y="310" as="targetPoint" />
          </mxGeometry>
        </mxCell>
        <mxCell id="BvLDTORuHnHlOKWKwA92-19" value="Ställe / Titel" style="text;html=1;align=center;verticalAlign=middle;whiteSpace=wrap;rounded=0;" vertex="1" parent="1">
          <mxGeometry x="410" y="370" width="90" height="30" as="geometry" />
        </mxCell>
        <mxCell id="BvLDTORuHnHlOKWKwA92-20" value="beskrivning" style="text;html=1;align=center;verticalAlign=middle;whiteSpace=wrap;rounded=0;" vertex="1" parent="1">
          <mxGeometry x="410" y="400" width="60" height="30" as="geometry" />
        </mxCell>
        <mxCell id="BvLDTORuHnHlOKWKwA92-21" value="" style="endArrow=none;html=1;rounded=0;entryX=0.862;entryY=0.318;entryDx=0;entryDy=0;entryPerimeter=0;exitX=0.5;exitY=0.318;exitDx=0;exitDy=0;exitPerimeter=0;" edge="1" parent="1">
          <mxGeometry width="50" height="50" relative="1" as="geometry">
            <mxPoint x="420" y="499.5" as="sourcePoint" />
            <mxPoint x="630" y="499.5" as="targetPoint" />
          </mxGeometry>
        </mxCell>
        <mxCell id="BvLDTORuHnHlOKWKwA92-22" value="Ställe / Titel" style="text;html=1;align=center;verticalAlign=middle;whiteSpace=wrap;rounded=0;" vertex="1" parent="1">
          <mxGeometry x="410" y="439.5" width="90" height="30" as="geometry" />
        </mxCell>
        <mxCell id="BvLDTORuHnHlOKWKwA92-23" value="beskrivning" style="text;html=1;align=center;verticalAlign=middle;whiteSpace=wrap;rounded=0;" vertex="1" parent="1">
          <mxGeometry x="410" y="469.5" width="60" height="30" as="geometry" />
        </mxCell>
        <mxCell id="BvLDTORuHnHlOKWKwA92-25" value="Ställe / Titel" style="text;html=1;align=center;verticalAlign=middle;whiteSpace=wrap;rounded=0;" vertex="1" parent="1">
          <mxGeometry x="410" y="510" width="90" height="30" as="geometry" />
        </mxCell>
        <mxCell id="BvLDTORuHnHlOKWKwA92-26" value="beskrivning" style="text;html=1;align=center;verticalAlign=middle;whiteSpace=wrap;rounded=0;" vertex="1" parent="1">
          <mxGeometry x="410" y="540" width="60" height="30" as="geometry" />
        </mxCell>
        <mxCell id="BvLDTORuHnHlOKWKwA92-27" value="" style="rounded=0;whiteSpace=wrap;html=1;" vertex="1" parent="1">
          <mxGeometry x="130" y="590" width="580" height="140" as="geometry" />
        </mxCell>
        <mxCell id="BvLDTORuHnHlOKWKwA92-28" value="utbildning" style="text;html=1;align=center;verticalAlign=middle;whiteSpace=wrap;rounded=0;" vertex="1" parent="1">
          <mxGeometry x="140" y="610" width="60" height="30" as="geometry" />
        </mxCell>
        <mxCell id="BvLDTORuHnHlOKWKwA92-30" value="Skola / Utbildning" style="text;html=1;align=center;verticalAlign=middle;whiteSpace=wrap;rounded=0;" vertex="1" parent="1">
          <mxGeometry x="395" y="600" width="135" height="30" as="geometry" />
        </mxCell>
        <mxCell id="BvLDTORuHnHlOKWKwA92-31" value="Tid" style="text;html=1;align=center;verticalAlign=middle;whiteSpace=wrap;rounded=0;" vertex="1" parent="1">
          <mxGeometry x="400" y="630" width="60" height="30" as="geometry" />
        </mxCell>
        <mxCell id="BvLDTORuHnHlOKWKwA92-32" value="Vad det har gett för kunskaper" style="text;html=1;align=center;verticalAlign=middle;whiteSpace=wrap;rounded=0;" vertex="1" parent="1">
          <mxGeometry x="395" y="660" width="135" height="30" as="geometry" />
        </mxCell>
        <mxCell id="BvLDTORuHnHlOKWKwA92-33" value="" style="rounded=0;whiteSpace=wrap;html=1;" vertex="1" parent="1">
          <mxGeometry x="130" y="740" width="580" height="110" as="geometry" />
        </mxCell>
        <mxCell id="BvLDTORuHnHlOKWKwA92-34" value="Kontakt" style="text;html=1;align=center;verticalAlign=middle;whiteSpace=wrap;rounded=0;" vertex="1" parent="1">
          <mxGeometry x="140" y="790" width="60" height="30" as="geometry" />
        </mxCell>
        <mxCell id="BvLDTORuHnHlOKWKwA92-35" value="Var hittar du mig" style="text;html=1;align=center;verticalAlign=middle;whiteSpace=wrap;rounded=0;" vertex="1" parent="1">
          <mxGeometry x="140" y="750" width="100" height="30" as="geometry" />
        </mxCell>
        <mxCell id="BvLDTORuHnHlOKWKwA92-36" value="Github" style="text;html=1;align=center;verticalAlign=middle;whiteSpace=wrap;rounded=0;" vertex="1" parent="1">
          <mxGeometry x="410" y="750" width="60" height="30" as="geometry" />
        </mxCell>
        <mxCell id="BvLDTORuHnHlOKWKwA92-37" value="Telefon" style="text;html=1;align=center;verticalAlign=middle;whiteSpace=wrap;rounded=0;" vertex="1" parent="1">
          <mxGeometry x="410" y="790" width="60" height="30" as="geometry" />
        </mxCell>
        <mxCell id="BvLDTORuHnHlOKWKwA92-38" value="Mail" style="text;html=1;align=center;verticalAlign=middle;whiteSpace=wrap;rounded=0;" vertex="1" parent="1">
          <mxGeometry x="410" y="820" width="60" height="30" as="geometry" />
        </mxCell>
        <mxCell id="BvLDTORuHnHlOKWKwA92-10" value="" style="endArrow=none;html=1;rounded=0;entryX=0.24;entryY=0.043;entryDx=0;entryDy=0;entryPerimeter=0;" edge="1" parent="1" target="BvLDTORuHnHlOKWKwA92-8">
          <mxGeometry width="50" height="50" relative="1" as="geometry">
            <mxPoint x="270" y="870" as="sourcePoint" />
            <mxPoint x="280" y="250" as="targetPoint" />
          </mxGeometry>
        </mxCell>
        <mxCell id="BvLDTORuHnHlOKWKwA92-39" value="" style="rounded=0;whiteSpace=wrap;html=1;" vertex="1" parent="1">
          <mxGeometry x="130" y="860" width="580" height="110" as="geometry" />
        </mxCell>
        <mxCell id="BvLDTORuHnHlOKWKwA92-40" value="Copyright" style="text;html=1;align=center;verticalAlign=middle;whiteSpace=wrap;rounded=0;" vertex="1" parent="1">
          <mxGeometry x="160" y="900" width="110" height="30" as="geometry" />
        </mxCell>
      </root>
    </mxGraphModel>
  </diagram>
</mxfile>
